<?xml version="1.0" encoding="utf-8"?>
<!-- Generator: Adobe Illustrator 16.0.0, SVG Export Plug-In . SVG Version: 6.00 Build 0)  -->
<!DOCTYPE svg PUBLIC "-//W3C//DTD SVG 1.1//EN" "http://www.w3.org/Graphics/SVG/1.1/DTD/svg11.dtd">
<svg version="1.1" id="Layer_1" xmlns="http://www.w3.org/2000/svg" xmlns:xlink="http://www.w3.org/1999/xlink" x="0px" y="0px"
	 width="595.279px" height="104.436px" viewBox="0 0 595.279 104.436" enable-background="new 0 0 595.279 104.436"
	 xml:space="preserve">
<title>Top</title>
<desc>Created with Sketch.</desc>
<g>
	<path fill="#FFFFFF" d="M107.419,0.745H82.056v103.689h25.362c26.854,0,43.267-18.649,43.267-50.727v-2.237
		C150.685,19.395,134.274,0.745,107.419,0.745z M129.798,52.963c0,11.188-2.237,19.395-5.968,25.361
		c-3.729,5.223-9.697,7.46-16.411,7.46h-5.222V18.648h5.222c6.714,0,12.683,2.983,16.411,7.46
		c4.477,5.221,5.968,14.173,5.968,25.363V52.963z"/>
	<path fill="#FFFFFF" d="M220.06,35.06v-0.746c0-10.443-2.984-18.649-8.952-24.617C205.141,3.73,196.189,0.745,185,0.745h-29.093
		v103.689h20.142V69.373h8.205l15.665,35.062h22.38l-17.902-40.282C214.838,58.185,220.06,48.487,220.06,35.06z M184.253,51.471
		h-7.459V18.648h7.459c11.189,0,16.411,5.222,16.411,16.412C199.918,45.503,193.951,51.471,184.253,51.471z"/>
	<path fill="#FFFFFF" d="M28.347-0.001L0,104.435l0,0h20.142l5.222-21.634h26.109l5.222,21.634H77.58L48.488-0.001H28.347z
		 M29.838,64.899l8.206-32.823l8.206,32.823H29.838z"/>
	<path fill="#FFFFFF" d="M389.394-0.001l-28.347,104.437l0,0h20.141l5.222-21.634h26.109l5.222,21.634h20.888L409.535-0.001H389.394
		z M390.886,64.899l8.205-32.823l8.206,32.823H390.886z"/>
	<polygon fill="#FFFFFF" points="462.498,0.745 442.357,0.745 442.357,104.435 492.338,104.435 492.338,85.785 462.498,85.785 	"/>
	<rect x="497.559" y="0.745" fill="#FFFFFF" width="20.141" height="103.689"/>
	<polygon fill="#FFFFFF" points="247.66,61.168 277.499,61.168 277.499,42.519 247.66,42.519 247.66,19.395 281.229,19.395 
		281.229,0.745 227.52,0.745 227.52,104.435 281.975,104.435 281.975,85.785 247.66,85.785 	"/>
	<polygon fill="#FFFFFF" points="575.885,0.745 575.885,56.693 546.792,0.745 546.792,0.745 528.143,0.745 528.143,104.435 
		547.538,104.435 547.538,46.249 578.123,104.435 578.123,104.435 595.28,104.435 595.28,0.745 	"/>
	<polygon fill="#FFFFFF" points="337.177,56.693 308.083,0.745 290.181,0.745 290.181,104.435 309.575,104.435 309.575,46.249 
		339.414,104.435 339.414,104.435 357.317,104.435 357.317,0.745 337.177,0.745 	"/>
</g>
</svg>
