<?xml version="1.0" encoding="utf-8"?>
<!-- Generator: Adobe Illustrator 16.0.0, SVG Export Plug-In . SVG Version: 6.00 Build 0)  -->
<!DOCTYPE svg PUBLIC "-//W3C//DTD SVG 1.1//EN" "http://www.w3.org/Graphics/SVG/1.1/DTD/svg11.dtd">
<svg version="1.1" id="Layer_1" xmlns="http://www.w3.org/2000/svg" xmlns:xlink="http://www.w3.org/1999/xlink" x="0px" y="0px"
	 width="595.279px" height="104.436px" viewBox="0 368.728 595.279 104.436" enable-background="new 0 368.728 595.279 104.436"
	 xml:space="preserve">
<title>Top</title>
<desc>Created with Sketch.</desc>
<g>
	<path d="M107.419,369.474H82.056v103.689h25.363c26.854,0,43.266-18.649,43.266-50.726v-2.238
		C150.685,388.123,134.274,369.474,107.419,369.474z M129.798,421.691c0,11.189-2.238,19.395-5.968,25.362
		c-3.729,5.222-9.697,7.46-16.411,7.46h-5.222v-67.137h5.222c6.714,0,12.682,2.984,16.411,7.46
		c4.476,5.221,5.968,14.173,5.968,25.363V421.691z"/>
	<path d="M220.06,403.788v-0.746c0-10.443-2.984-18.649-8.952-24.617c-5.967-5.967-14.919-8.951-26.108-8.951h-29.093v103.689
		h20.142v-35.061h8.205l15.665,35.061h22.38l-17.903-40.282C214.838,426.913,220.06,417.215,220.06,403.788z M184.253,420.199
		h-7.459v-32.823h7.459c11.189,0,16.411,5.222,16.411,16.412C199.918,414.231,193.951,420.199,184.253,420.199z"/>
	<path d="M28.347,368.728L0,473.163l0,0h20.141l5.222-21.634h26.109l5.222,21.634H77.58L48.488,368.728H28.347z M29.838,433.627
		l8.206-32.823l8.206,32.823H29.838z"/>
	<path d="M389.394,368.728l-28.347,104.436l0,0h20.141l5.222-21.634h26.109l5.222,21.634h20.887l-29.093-104.436H389.394z
		 M390.886,433.627l8.205-32.823l8.206,32.823H390.886z"/>
	<polygon points="462.498,369.474 442.357,369.474 442.357,473.163 492.337,473.163 492.337,454.514 462.498,454.514 	"/>
	<rect x="497.559" y="369.474" width="20.141" height="103.689"/>
	<polygon points="247.66,429.896 277.499,429.896 277.499,411.247 247.66,411.247 247.66,388.123 281.229,388.123 281.229,369.474 
		227.52,369.474 227.52,473.163 281.975,473.163 281.975,454.514 247.66,454.514 	"/>
	<polygon points="575.885,369.474 575.885,425.421 546.792,369.474 546.792,369.474 528.143,369.474 528.143,473.163 
		547.538,473.163 547.538,414.978 578.123,473.163 578.123,473.163 595.28,473.163 595.28,369.474 	"/>
	<polygon points="337.176,425.421 308.083,369.474 290.181,369.474 290.181,473.163 309.575,473.163 309.575,414.978 
		339.414,473.163 339.414,473.163 357.317,473.163 357.317,369.474 337.176,369.474 	"/>
</g>
</svg>
